<svg id="Layer_1" data-name="Layer 1" xmlns="http://www.w3.org/2000/svg" xmlns:xlink="http://www.w3.org/1999/xlink" viewBox="0 0 390 390"><defs><style>.cls-1{fill:url(#linear-gradient);}</style><linearGradient id="linear-gradient" x1="59.24" y1="330.76" x2="330.43" y2="59.57" gradientUnits="userSpaceOnUse"><stop offset="0" stop-color="#00cd64"/><stop offset="1" stop-color="#00ff80"/></linearGradient></defs><title>G - RGB Gradient</title><path class="cls-1" d="M349.42,80.89l-27.54,27.53a153.38,153.38,0,1,1-61.32-52.36L230.81,85.81A115.08,115.08,0,1,0,310.2,195.43a110.74,110.74,0,0,0-1.62-18.86H216.5L178.1,215h91.28c-8.52,32.25-38.59,57.21-74.38,57.21a77,77,0,0,1-76.8-77c0-42.41,34.38-76.13,76.8-76.13a74.51,74.51,0,0,1,43.44,13.56L321,50.1A191.29,191.29,0,0,0,195,3h0C89,3,3,89,3,195S89,387,195,387s192-86,192-192v0A191.2,191.2,0,0,0,349.42,80.89Z"/></svg>