<svg xmlns="http://www.w3.org/2000/svg" xmlns:xlink="http://www.w3.org/1999/xlink" viewBox="0 0 483.47 102.13"><defs><style>.cls-1{fill:url(#linear-gradient);}.cls-2{fill:#1bc133;}.cls-3{fill:url(#linear-gradient-2);}.cls-4{fill:#fff;}</style><linearGradient id="linear-gradient" y1="25.31" x2="95.12" y2="25.31" gradientUnits="userSpaceOnUse"><stop offset="0" stop-color="#00cd64"/><stop offset="1" stop-color="#00ff80"/></linearGradient><linearGradient id="linear-gradient-2" x1="35.77" y1="51.1" x2="118.6" y2="51.1" xlink:href="#linear-gradient"/></defs><title>esport-vault-logo-portrait-white</title><g id="Layer_2" data-name="Layer 2"><g id="Layer_6" data-name="Layer 6"><polygon class="cls-1" points="95.12 0 12.1 0 0.41 0 0 0 29.82 50.47 41.33 50.62 65.88 50.62 71.73 40.5 35.48 40.5 29.64 30.37 77.58 30.37 83.42 20.25 23.79 20.25 17.95 10.12 89.27 10.12 95.12 0"/><line class="cls-2" x1="6.25" y1="10.12" x2="12.1" y2="20.25"/><polyline class="cls-2" points="75.02 75.12 110.86 13.45 105.04 3.31 63.33 75.09 57.46 85.2"/><polygon class="cls-3" points="106.35 0.06 59.65 80.92 48.02 60.78 35.77 60.78 59.65 102.13 118.6 0.06 106.35 0.06"/><path class="cls-4" d="M347,70.91h-8.58l-12-39.69H335l7.69,27,7.68-27h8.59Zm44.81,0h-8.82L380.44,63H368.22l-2.38,7.87H357l13-39.69h8.7Zm-21-15.5h7.16l-3.58-13.23Zm52.56-24.19V64.35a6.54,6.54,0,0,1-6.55,6.56H402.66a6.54,6.54,0,0,1-6.55-6.56V31.22h8.64V62.45a.56.56,0,0,0,.6.59h8.76a.56.56,0,0,0,.59-.59V31.22Zm8,0H440V63h15.79v7.87H431.38Zm22.95,0h29.14v7.87H473.22V70.91h-8.64V39.09H454.33Z"/><path class="cls-4" d="M127.93,31.22h22.65v3.87H132.1V48.44h16.81v3.88H132.1V67h18.6v3.87H127.93Z"/><path class="cls-4" d="M156.89,44.75V37.83a6.38,6.38,0,0,1,6.62-6.61h11a6.37,6.37,0,0,1,6.56,6.61v4.83h-4.17V38.55A3.19,3.19,0,0,0,173.46,35h-8.94a3.19,3.19,0,0,0-3.46,3.52V44c0,2,1.37,3,3.34,3.52,4.95,1.37,5.9,1.67,10.67,3,3.46,1,6.2,2.74,6.2,6.49v7.27a6.37,6.37,0,0,1-6.56,6.62H163.33a6.42,6.42,0,0,1-6.62-6.62V59.41h4.17v4.17A3.15,3.15,0,0,0,164.34,67h9.3a3.15,3.15,0,0,0,3.46-3.46v-5.9c0-2-1-2.86-3.34-3.52l-10.61-3C159.57,50.17,156.89,48.38,156.89,44.75Z"/><path class="cls-4" d="M187.82,31.22h18a6.38,6.38,0,0,1,6.56,6.61v9.9a6.41,6.41,0,0,1-6.56,6.61H192V70.91h-4.17ZM192,50.47h12.76A3.16,3.16,0,0,0,208.2,47V38.55a3.16,3.16,0,0,0-3.45-3.46H192Z"/><path class="cls-4" d="M242.59,64.29A6.42,6.42,0,0,1,236,70.91H223.4a6.41,6.41,0,0,1-6.56-6.62V37.83a6.37,6.37,0,0,1,6.56-6.61H236a6.38,6.38,0,0,1,6.62,6.61ZM235,35.09H224.47A3.19,3.19,0,0,0,221,38.55v25A3.2,3.2,0,0,0,224.47,67H235a3.2,3.2,0,0,0,3.46-3.46v-25A3.19,3.19,0,0,0,235,35.09Z"/><path class="cls-4" d="M250,31.22h18.41A6.34,6.34,0,0,1,275,37.83v9.72a6.28,6.28,0,0,1-5.54,6.55l8.16,16.81h-4.47L265,54.16H254.21V70.91H250Zm4.17,19.13h13.17a3.17,3.17,0,0,0,3.46-3.46V38.55a3.17,3.17,0,0,0-3.46-3.46H254.21Z"/><path class="cls-4" d="M278.52,31.22h27.84v3.87h-11.8V70.91h-4.18V35.09H278.52Z"/><path class="cls-4" d="M330.45,51.29a16.24,16.24,0,0,0-2.1-.76c-4.77-1.37-5.73-1.67-10.67-3-2-.54-3.34-1.49-3.34-3.52V38.55A3.18,3.18,0,0,1,317.8,35h7.74l-1.15-3.81h-7.61a6.38,6.38,0,0,0-6.61,6.61v6.92c0,3.63,2.68,5.42,6.26,6.43l10.6,3c2.33.66,3.34,1.55,3.34,3.52v5.9A3.14,3.14,0,0,1,326.92,67h-9.3a3.14,3.14,0,0,1-3.46-3.46V59.41H310v4.88a6.42,6.42,0,0,0,6.61,6.62H328a6.34,6.34,0,0,0,6.53-6.11Z"/></g></g></svg>